<svg width="373" height="373" viewBox="0 0 373 373" fill="none" xmlns="http://www.w3.org/2000/svg">
<path d="M373 195.343C348.803 184.49 324.526 173.718 306.841 159.65C289.155 145.663 278.062 128.46 257.643 115.357C237.144 102.334 207.401 93.3304 192.529 74.7608C177.657 56.1912 177.657 28.1358 177.657 0H373V195.343Z" fill="#443AD8"/>
<g opacity="0.5">
<path d="M373 373C326.797 352.278 280.441 331.709 246.671 304.847C212.902 278.138 191.719 245.29 152.73 220.27C113.588 195.403 56.7942 178.211 28.3971 142.753C0 107.295 0 53.7243 0 0H373V373Z" fill="#443AD8"/>
</g>
<g opacity="0.5">
<path d="M373 291.004C336.954 274.837 300.788 258.79 274.442 237.833C248.096 216.996 231.569 191.368 201.152 171.848C170.614 152.448 126.305 139.035 104.15 111.372C81.9956 83.7086 81.9956 41.9142 81.9956 0H373V291.004Z" fill="#443AD8"/>
</g>
</svg>
